<?xml version="1.0" encoding="UTF-8"?>
<!-- Generator: Adobe Illustrator 16.0.4, SVG Export Plug-In . SVG Version: 6.00 Build 0)  -->
<!DOCTYPE svg PUBLIC "-//W3C//DTD SVG 1.1//EN" "http://www.w3.org/Graphics/SVG/1.1/DTD/svg11.dtd">
<svg version="1.1" id="Layer_1" xmlns="http://www.w3.org/2000/svg" xmlns:xlink="http://www.w3.org/1999/xlink" x="0px" y="0px" width="115px" height="58px" viewBox="0 0 115 58" enable-background="new 0 0 115 58" xml:space="preserve">
<g>
	<g>
		<path fill="#0C101D" d="M54.463,42.104c-0.008-0.012-0.016-0.024-0.023-0.035c0,0-0.005,0.005-0.007,0.01    C54.436,42.08,54.465,42.11,54.463,42.104z"/>
		<path fill="#0C101D" d="M47.51,43.544c-0.536-0.572-1.002-1.181-1.433-1.352c0.709-0.186,1.758-0.97,1.758-2.061    c0-1.198-0.737-2.335-3.143-2.335c-0.282,0-2.938,0-2.938,0l0,0c0.137,0.039,0.233,0.09,0.301,0.171    c0.129,0.159,0.172,0.419,0.18,0.854l0.001,6.054c-0.007,0.438-0.051,0.696-0.18,0.854c-0.067,0.081-0.162,0.131-0.298,0.172    h2.083c-0.136-0.041-0.23-0.091-0.297-0.172c-0.129-0.158-0.174-0.417-0.181-0.854l-0.001-2.334h0.505    c0.347,0,0.779-0.005,1.063,0.045c0.387,0.069,0.674,0.587,1.24,1.152l0.845,0.847c1.143,1.141,2.262,1.739,4.112,1.456l0,0    C49.69,46.149,47.51,43.544,47.51,43.544z M44.232,41.965h-0.871v-2.604l0,0v-0.973c0,0,0.949,0,1.129,0    c1.367,0,2.111,0.354,2.111,1.82C46.602,41.706,45.305,41.965,44.232,41.965z"/>
		<path fill="#0C101D" d="M28.669,37.795v0.002c0.138,0.038,0.233,0.09,0.301,0.171c0.161,0.199,0.172,0.363,0.181,0.856v5.283    l-5.332-6.312h-1.653v0.002c0.136,0.038,0.233,0.09,0.301,0.171c0.127,0.159,0.173,0.547,0.181,0.984v5.924    c-0.008,0.436-0.054,0.694-0.181,0.853c-0.068,0.083-0.164,0.133-0.301,0.174h1.61c-0.137-0.041-0.24-0.091-0.307-0.174    c-0.129-0.158-0.175-0.417-0.182-0.853v-5.971l5.924,6.997h0.579v-7.078c0.007-0.438,0.052-0.697,0.181-0.856    c0.068-0.081,0.164-0.133,0.3-0.171v-0.002H28.669z"/>
		<path fill="#0C101D" d="M106.998,37.797c0.139,0.038,0.234,0.09,0.303,0.171c0.128,0.158,0.172,0.417,0.179,0.852v6.057    c-0.006,0.436-0.05,0.694-0.179,0.853c-0.067,0.083-0.163,0.133-0.301,0.174h2.087c-0.137-0.041-0.231-0.091-0.3-0.174    c-0.13-0.158-0.173-0.417-0.18-0.853v-2.92h2.141c0.438,0.006,0.698,0.051,0.856,0.181c0.082,0.067,0.132,0.163,0.172,0.3v-1.54    c-0.04,0.137-0.09,0.232-0.172,0.3c-0.158,0.13-0.418,0.174-0.856,0.181h-2.141v-2.99h3.211c0.436,0.008,0.696,0.053,0.854,0.181    c0.082,0.069,0.134,0.163,0.172,0.3v-1.072h-5.846V37.797z"/>
		<rect x="101.018" y="38.352" fill="#0C101D" width="0" height="0"/>
		<path fill="#0C101D" d="M13.797,45.902c-0.028-0.009-0.057-0.021-0.083-0.03c-0.036-0.014-0.068-0.028-0.096-0.045    c-0.109-0.07-0.189-0.159-0.18-0.33c0.006-0.103,0.511-1.496,0.646-1.859h3.892c0.232,0.627,0.468,1.271,0.575,1.578    c0.042,0.13,0.073,0.234,0.077,0.281c0.009,0.171-0.071,0.26-0.18,0.33c-0.028,0.017-0.061,0.031-0.096,0.045    c-0.025,0.01-0.053,0.021-0.082,0.03l0,0h2.081l0,0c-0.312-0.103-0.471-0.347-0.699-0.931l-2.717-7.175l-1.414-0.002    c-0.057,0.149-2.61,6.921-2.612,6.926c-0.283,0.769-0.439,1.067-0.793,1.182l0,0H13.797L13.797,45.902z M16.032,38.456    c0.509,1.344,1.195,3.161,1.73,4.599H14.3C14.815,41.675,15.77,39.151,16.032,38.456z"/>
		<path fill="#0C101D" d="M78.823,45.729c-0.13-0.158-0.173-0.417-0.182-0.853v-2.922h4.896v2.922    c-0.007,0.436-0.051,0.694-0.181,0.853c-0.067,0.083-0.164,0.133-0.3,0.174h2.04c-0.137-0.041-0.233-0.091-0.3-0.174    c-0.13-0.158-0.175-0.417-0.181-0.853v-6.052c0.006-0.438,0.051-0.697,0.181-0.856c0.066-0.081,0.163-0.133,0.302-0.171v-0.002    h-2.043v0.002c0.137,0.038,0.233,0.09,0.301,0.171c0.13,0.159,0.174,0.419,0.181,0.856v2.553h-4.896v-2.553    c0.009-0.438,0.052-0.697,0.182-0.856c0.068-0.081,0.163-0.133,0.301-0.173l0,0h-2.042l0,0c0.138,0.04,0.232,0.092,0.301,0.173    c0.131,0.159,0.173,0.419,0.181,0.856v6.052c-0.008,0.436-0.05,0.694-0.181,0.853c-0.068,0.083-0.162,0.133-0.299,0.174h2.04    C78.986,45.861,78.891,45.812,78.823,45.729z"/>
		<path fill="#0C101D" d="M73.745,37.795c0.029,0.009,0.057,0.021,0.082,0.031c0.035,0.014,0.067,0.028,0.097,0.045    c0.106,0.071,0.222,0.18,0.179,0.333c-0.019,0.066-1.467,4.019-2.207,6.002c-0.866-2.522-1.979-5.912-1.979-6.037    c0-0.196,0.071-0.312,0.246-0.374l0,0h-1.852l0,0c0.228,0.084,0.377,0.263,0.515,0.618c-0.297,0.84-1.454,4.086-2.097,5.805    c-0.866-2.522-2.014-5.926-2.032-6.049c-0.028-0.195,0.072-0.312,0.247-0.374l0,0h-1.851l0,0c0.251,0.094,0.407,0.304,0.561,0.746    l2.538,7.361h0.587c0.082-0.216,0.176-0.463,0.279-0.733c0.672-1.781,1.713-4.541,2.118-5.614l2.187,6.348h0.58    c0.082-0.219,2.606-6.918,2.608-6.924c0.283-0.769,0.441-1.069,0.795-1.184l0,0H73.745L73.745,37.795z"/>
		<path fill="#0C101D" d="M54.927,45.729c-0.13-0.158-0.173-0.417-0.181-0.853v-2.127c0,0,2.667-4.005,2.699-4.054    c0.393-0.597,0.55-0.851,0.895-0.898v-0.002H56.68v0.002h0.001c0.021,0,0.042,0.003,0.063,0.007    c0.147,0.031,0.266,0.162,0.26,0.319c-0.006,0.111-0.083,0.223-0.083,0.223s-2.146,3.216-2.481,3.724    c0.008,0.011-0.004,0.011-0.007,0.01c0.002-0.005,0.005-0.007,0.005-0.007c-1.119-1.764-2.296-3.612-2.345-3.696    c-0.087-0.15-0.117-0.259-0.11-0.34c0.005-0.116,0.089-0.214,0.199-0.238c0,0,0.003-0.001,0.005-0.001v-0.002h-2.114    c0.286,0.034,0.498,0.202,0.752,0.6l2.794,4.349v2.133c-0.008,0.436-0.051,0.694-0.18,0.853c-0.067,0.083-0.164,0.133-0.3,0.174    h2.086C55.088,45.861,54.994,45.812,54.927,45.729z"/>
		<path fill="#0C101D" d="M10.572,43.868c-0.088,0.136-0.234,0.348-0.481,0.594l-0.017,0.017c-0.011,0.013-0.024,0.022-0.036,0.036    c-0.014,0.013-0.029,0.026-0.043,0.041l-0.011,0.01c-0.127,0.118-0.264,0.229-0.407,0.326l-0.018,0.014    c-0.015,0.01-0.032,0.021-0.047,0.032c-0.017,0.01-0.034,0.021-0.05,0.032L9.443,44.98c-0.549,0.348-1.187,0.54-1.836,0.558    c-0.982,0.025-1.916-0.34-2.628-1.029c-0.714-0.689-1.071-1.723-1.094-2.63c-0.038-1.399,0.634-2.687,1.839-3.365l0.009-0.007    c0.005-0.002,0.01-0.006,0.014-0.007l0.007-0.004c0.021-0.012,0.042-0.022,0.064-0.035c0.492-0.257,1.023-0.398,1.581-0.415    c0.004,0,0.008-0.001,0.008-0.001c0.018,0,0.035,0,0.052-0.001c0.015,0,0.032,0,0.047,0c1.158,0,2.258,0.521,2.955,1.339    l-0.163-1.384c-0.241,0.067-0.519-0.022-0.927-0.15c-0.566-0.176-1.163-0.283-1.782-0.3H7.578c-0.021,0-0.044,0-0.064-0.002    c-0.009,0-0.018,0-0.027,0c-0.016,0-0.035,0-0.051,0c-0.009,0-0.016,0-0.027,0c-0.269,0-0.536,0.019-0.798,0.053H6.607    c-0.01,0-0.021,0.003-0.033,0.004c-0.109,0.016-0.218,0.033-0.324,0.054l-0.026,0.005c-0.815,0.18-1.567,0.563-2.169,1.11    c-0.602,0.546-1.032,1.292-1.242,2.041l-0.005,0.018c-0.008,0.028-0.015,0.056-0.023,0.084l-0.005,0.021    c-0.005,0.026-0.011,0.051-0.017,0.075c-0.003,0.015-0.006,0.028-0.009,0.041c-0.002,0.018-0.006,0.032-0.01,0.049l-0.001,0.012    c-0.004,0.01-0.006,0.021-0.007,0.034c-0.005,0.024-0.01,0.049-0.013,0.074c-0.004,0.016-0.005,0.03-0.008,0.046v0.001    c-0.003,0.016-0.004,0.03-0.007,0.044c-0.002,0.017-0.004,0.033-0.007,0.051c0,0.004-0.001,0.011-0.001,0.017L2.695,41.39    c-0.005,0.037-0.009,0.074-0.012,0.112v0.009c-0.002,0.006-0.002,0.013-0.002,0.013c-0.003,0.027-0.004,0.047-0.007,0.064    c0,0.012-0.001,0.022-0.001,0.034v0.002c-0.001,0.022-0.003,0.045-0.004,0.066c0,0.023-0.002,0.048-0.003,0.072    c-0.001,0.01-0.001,0.018-0.001,0.028v0.012c0,0.021,0,0.041,0,0.062c0,0.011,0,0.022,0,0.035c0,0.036,0,0.066,0,0.097    c0.001,0.022,0.002,0.048,0.004,0.073v0.004c0.001,0.021,0.001,0.043,0.003,0.064c0.001,0.023,0.002,0.049,0.005,0.072    l0.001,0.016c0.002,0.016,0.003,0.029,0.005,0.044v0.014c0.003,0.029,0.006,0.063,0.01,0.098l0.004,0.021    c0.001,0.018,0.004,0.034,0.006,0.052c0.004,0.023,0.007,0.045,0.011,0.069c0.002,0.009,0.002,0.017,0.002,0.017l0.004,0.017    c0.003,0.027,0.008,0.053,0.013,0.079l0.001,0.007c0.007,0.034,0.015,0.07,0.022,0.104c0.212,0.966,0.731,1.87,1.566,2.491    c0.079,0.059,0.16,0.113,0.243,0.167l0,0c0.027,0.017,0.055,0.034,0.083,0.051c0.004,0.002,0.007,0.004,0.013,0.006    c0.023,0.015,0.048,0.029,0.073,0.044c0.002,0.001,0.004,0.001,0.004,0.001c0.742,0.422,1.624,0.637,2.491,0.643l0,0    c0.017,0,0.035,0,0.051,0c0.009,0,0.02,0,0.028,0c0.083-0.002,0.168-0.004,0.252-0.01l0.194-0.012l0.084-0.008    c0.009-0.001,0.018-0.002,0.027-0.003l0.028-0.003c0.009-0.001,0.017-0.001,0.026-0.001l0.053-0.008    c0.008-0.001,0.017-0.002,0.026-0.004L8.007,46.1c0,0,0.013-0.001,0.021-0.002l0.077-0.01l0.119-0.02    c0.009,0,0.018-0.002,0.027-0.004l0.021-0.004c0.009-0.001,0.017-0.003,0.024-0.004c0,0,0.013-0.004,0.021-0.004l0.113-0.022    l0.252-0.056c0.063-0.016,0.124-0.032,0.183-0.046l0.008-0.001c0.043-0.013,0.086-0.023,0.127-0.034l0.075-0.017    c0,0,0.015-0.005,0.022-0.007l0.043-0.01c0,0,0.015-0.004,0.021-0.005l0.078-0.016c0.007-0.002,0.012-0.003,0.019-0.003    l0.031-0.007l0.11-0.017l0.064-0.007c0.005-0.001,0.011-0.001,0.017-0.001l0.015-0.002c0.006,0,0.012,0,0.012,0L9.561,45.8    c0.006,0,0.011,0,0.018,0l0.081-0.002h0.034l0.104,0.008h0.015l0.02,0.002c0.007,0,0.016,0.002,0.024,0.002l0.011,0.002    c0.012,0.002,0.023,0.003,0.034,0.005l0.043,0.007c0,0,0.193-0.371,0.362-0.875c0.221-0.656,0.268-1.073,0.268-1.073"/>
		<path fill="#0C101D" d="M33.452,45.902c-0.028-0.009-0.055-0.021-0.083-0.03c-0.035-0.014-0.066-0.028-0.095-0.045    c-0.109-0.07-0.189-0.159-0.18-0.33c0.005-0.103,0.511-1.496,0.646-1.859h3.893c0.232,0.627,0.468,1.271,0.576,1.578    c0.041,0.13,0.073,0.234,0.076,0.281c0.01,0.171-0.071,0.26-0.18,0.33c-0.028,0.017-0.06,0.031-0.096,0.045    c-0.026,0.01-0.053,0.021-0.082,0.03l0,0h2.081l0,0c-0.312-0.103-0.471-0.347-0.698-0.931l-2.718-7.175l-1.414-0.002    c-0.059,0.149-2.61,6.921-2.61,6.921c-0.285,0.773-0.442,1.072-0.796,1.187l0,0H33.452L33.452,45.902z M35.687,38.456    c0.509,1.344,1.196,3.161,1.73,4.599h-3.461C34.472,41.675,35.424,39.151,35.687,38.456z"/>
		<path fill="#0C101D" d="M88.378,45.902c-0.029-0.009-0.056-0.021-0.082-0.03c-0.036-0.014-0.067-0.028-0.098-0.045    c-0.108-0.07-0.188-0.159-0.18-0.33c0.006-0.103,0.512-1.496,0.646-1.859h3.894c0.231,0.627,0.467,1.271,0.575,1.578    c0.042,0.13,0.073,0.234,0.075,0.281c0.011,0.171-0.071,0.26-0.179,0.33c-0.029,0.017-0.062,0.031-0.098,0.045    c-0.024,0.01-0.053,0.021-0.081,0.03l0,0h2.08l0,0c-0.312-0.103-0.471-0.347-0.697-0.931l-2.718-7.175l-1.413-0.002    c-0.058,0.149-2.609,6.921-2.609,6.921c-0.285,0.773-0.441,1.072-0.796,1.187l0,0H88.378L88.378,45.902z M90.611,38.456    c0.509,1.344,1.195,3.161,1.729,4.599h-3.46C89.396,41.675,90.349,39.151,90.611,38.456z"/>
		<path fill="#0C101D" d="M102.233,43.544c-0.533-0.572-1.002-1.181-1.432-1.352c0.709-0.186,1.758-0.97,1.758-2.061    c0-1.198-0.736-2.335-3.143-2.335c-0.283,0-2.938,0-2.938,0l0,0c0.138,0.039,0.232,0.09,0.3,0.171    c0.13,0.159,0.174,0.419,0.181,0.854l0.002,6.054c-0.008,0.438-0.052,0.696-0.181,0.854c-0.067,0.081-0.161,0.131-0.299,0.172    h2.084c-0.136-0.041-0.231-0.091-0.298-0.172c-0.13-0.158-0.174-0.417-0.182-0.854l-0.001-2.334h0.505    c0.347,0,0.778-0.005,1.064,0.045c0.386,0.069,0.674,0.587,1.238,1.152l0.848,0.847c1.143,1.141,2.26,1.739,4.111,1.456l0,0    C104.414,46.149,102.233,43.544,102.233,43.544z M98.957,41.965h-0.871v-2.604c0,0,0,0-0.001,0v-0.973c0,0,0.949,0,1.13,0    c1.368,0,2.111,0.354,2.111,1.82C101.326,41.706,100.03,41.965,98.957,41.965z"/>
	</g>
	<path fill="#0C101D" d="M67.221,11.037h-0.99c0.475,0,0.862,0.385,0.862,0.86c0,0,0,17.608-0.002,17.639l-1.41-0.822   c0-0.152,0-16.847,0-16.856c-0.021-0.418-0.339-0.759-0.748-0.812c-0.036-0.005-1.096-0.008-1.096-0.008   c0.472,0,0.854,0.376,0.862,0.843v16.267l-1.444-0.834V4.399c-0.003-0.048-0.029-0.09-0.069-0.114c0,0-0.525-0.305-0.548-0.316   c-0.106-0.054-0.227-0.084-0.354-0.084c-0.136,0-0.263,0.036-0.374,0.096l0,0l-4.092,2.362c-0.214,0.141-0.387,0.372-0.387,0.642   v17.423c-0.002,0.073-0.044,0.136-0.106,0.167l-1.344,0.776V5.846c0.002-0.074,0.045-0.136,0.107-0.168l4.381-2.527   C60.578,3.1,60.7,3.071,60.826,3.071c0.169,0,0.326,0.049,0.458,0.133h0.001l-1.034-0.597c-0.121-0.064-0.259-0.101-0.403-0.101   c-0.132,0-0.254,0.03-0.365,0.082l-4.095,2.361c-0.213,0.139-0.386,0.372-0.386,0.64v20.325l-1.443,0.833L53.557,4.454   c0.003-0.075,0.045-0.137,0.106-0.169l4.347-2.514c0.119-0.062,0.254-0.098,0.397-0.098c0.167,0,0.325,0.049,0.458,0.132v0   l-1.034-0.598c-0.12-0.063-0.258-0.1-0.404-0.1c-0.147,0-0.285,0.038-0.405,0.103c0,0-4.031,2.325-4.057,2.341   c-0.214,0.14-0.387,0.371-0.387,0.641v23.118l-1.443,0.834c0-2.913,0-16.248,0-16.248c0-0.475,0.385-0.86,0.861-0.86h-0.981   c-0.473,0-0.855,0.38-0.86,0.85v16.825l-1.438,0.826V11.897c0-0.475,0.38-0.86,0.856-0.86h-0.98c-0.473,0-0.856,0.38-0.861,0.85   l0.002,18.147c0,0.002,0.001,0.012,0.001,0.012c0.002,0.049,0.03,0.09,0.069,0.114c0,0,0.526,0.305,0.548,0.313   c0.107,0.055,0.227,0.085,0.355,0.085c0.136,0,0.263-0.034,0.375-0.094l0,0c0,0,9.02-5.206,9.033-5.214   c0.185-0.122,0.295-0.319,0.296-0.536c0-0.023-0.001-17.477-0.001-17.477c0.001-0.072,0.043-0.135,0.107-0.167l1.336-0.769   l0.002,19.506c-0.002,0.073-0.045,0.138-0.106,0.169l-9.167,5.285c-0.126,0.073-0.272,0.115-0.43,0.115   c-0.169,0-0.325-0.049-0.459-0.133l1.034,0.599c0.12,0.065,0.257,0.101,0.403,0.101c0.187,0.002,0.432-0.114,0.432-0.114   s8.897-5.128,8.903-5.134c0.289-0.174,0.369-0.487,0.369-0.632c0,0-0.003-20.239-0.003-20.327l1.442-0.832v0.003   c0,0.056,0,22.298,0,22.298c-0.002,0.073-0.044,0.135-0.106,0.167l-9.172,5.279h-0.001c-0.125,0.072-0.273,0.116-0.43,0.116   c-0.168,0-0.325-0.049-0.458-0.133l1.032,0.599c0.122,0.062,0.257,0.1,0.4,0.1h0.004c0.13,0,0.255-0.029,0.368-0.082   c0.021-0.01,4.018-2.306,4.018-2.306l3.917,2.262c0.128,0.074,0.273,0.117,0.432,0.117c0.146,0,0.282-0.038,0.402-0.102   l1.033-0.598c-0.145,0.084-0.29,0.131-0.458,0.131c-0.156,0-0.304-0.042-0.43-0.114l-3.917-2.262l1.435-0.825l3.911,2.259   c0.127,0.072,0.274,0.114,0.431,0.114c0.146,0,0.283-0.037,0.404-0.1l1.032-0.6c-0.143,0.084-0.289,0.133-0.457,0.133   c-0.156,0-0.304-0.043-0.431-0.116l-3.909-2.256l1.441-0.829l3.965,2.301v-0.002c0.112,0.06,0.24,0.096,0.376,0.096   c0.127,0,0.248-0.03,0.354-0.084c0.021-0.012,0.548-0.316,0.548-0.316c0.039-0.022,0.066-0.065,0.069-0.112l0.001-0.012   l0.002-18.135C68.081,11.422,67.695,11.037,67.221,11.037z"/>
	<g>
		<path fill="#0C101D" d="M33.251,56.392c-0.392,0.422-0.916,0.642-1.489,0.642c-0.548,0-1.05-0.204-1.425-0.581    c-0.526-0.523-0.526-1.073-0.526-2.257c0-1.181,0-1.731,0.526-2.256c0.375-0.376,0.869-0.58,1.425-0.58    c1.065,0,1.787,0.689,1.951,1.67h-0.595c-0.158-0.705-0.66-1.137-1.356-1.137c-0.368,0-0.72,0.15-0.964,0.399    c-0.353,0.359-0.393,0.737-0.393,1.903c0,1.169,0.04,1.552,0.393,1.913c0.244,0.252,0.596,0.393,0.964,0.393    c0.408,0,0.8-0.165,1.059-0.479c0.227-0.274,0.314-0.578,0.314-1.011v-0.422h-1.373v-0.525h1.967v0.886    C33.73,55.591,33.597,56.021,33.251,56.392z"/>
		<path fill="#0C101D" d="M40.282,56.986l-1.271-2.477h-1.338v2.477h-0.598v-5.579h2.14c0.972,0,1.653,0.587,1.653,1.551    c0,0.815-0.492,1.348-1.215,1.496l1.325,2.532H40.282z M39.161,51.939h-1.487v2.045h1.487c0.65,0,1.113-0.337,1.113-1.017    C40.274,52.285,39.811,51.939,39.161,51.939z"/>
		<path fill="#0C101D" d="M47.342,56.452c-0.375,0.377-0.87,0.581-1.426,0.581s-1.05-0.204-1.426-0.581    c-0.525-0.523-0.525-1.073-0.525-2.257c0-1.181,0-1.731,0.525-2.256c0.376-0.376,0.87-0.58,1.426-0.58s1.051,0.204,1.426,0.58    c0.525,0.524,0.525,1.075,0.525,2.256C47.868,55.379,47.868,55.929,47.342,56.452z M46.88,52.292    c-0.245-0.249-0.597-0.399-0.964-0.399c-0.369,0-0.722,0.15-0.964,0.399c-0.352,0.359-0.392,0.737-0.392,1.903    c0,1.169,0.04,1.544,0.392,1.904c0.243,0.253,0.596,0.401,0.964,0.401c0.368,0,0.72-0.148,0.964-0.401    c0.351-0.36,0.392-0.735,0.392-1.904C47.272,53.029,47.231,52.651,46.88,52.292z"/>
		<path fill="#0C101D" d="M53.095,57.033c-1.129,0-1.944-0.774-1.944-1.889v-3.737h0.597v3.69c0,0.846,0.532,1.403,1.348,1.403    c0.814,0,1.354-0.558,1.354-1.403v-3.69h0.597v3.737C55.046,56.259,54.223,57.033,53.095,57.033z"/>
		<path fill="#0C101D" d="M60.618,54.691h-1.481v2.295h-0.596v-5.579h2.077c1.017,0,1.724,0.636,1.724,1.637    C62.342,54.047,61.635,54.691,60.618,54.691z M60.562,51.939h-1.426v2.217h1.426c0.698,0,1.184-0.376,1.184-1.112    S61.261,51.939,60.562,51.939z"/>
		<path fill="#0C101D" d="M71.425,54.691h-1.48v2.295h-0.597v-5.579h2.077c1.019,0,1.723,0.636,1.723,1.637    C73.147,54.047,72.443,54.691,71.425,54.691z M71.369,51.939h-1.425v2.217h1.425c0.698,0,1.183-0.376,1.183-1.112    S72.067,51.939,71.369,51.939z"/>
		<path fill="#0C101D" d="M76.243,56.986v-5.579h0.597v5.045h2.853v0.534H76.243z"/>
		<path fill="#0C101D" d="M84.151,57.033c-0.549,0-1.051-0.204-1.429-0.581C82.2,55.929,82.2,55.379,82.2,54.195    c0-1.181,0-1.731,0.522-2.256c0.378-0.376,0.88-0.58,1.429-0.58c1.003,0,1.747,0.612,1.935,1.661h-0.612    c-0.147-0.682-0.626-1.128-1.322-1.128c-0.369,0-0.722,0.141-0.965,0.393c-0.353,0.36-0.393,0.744-0.393,1.91    c0,1.169,0.04,1.552,0.393,1.913c0.243,0.252,0.596,0.393,0.965,0.393c0.696,0,1.189-0.448,1.339-1.129h0.596    C85.905,56.422,85.146,57.033,84.151,57.033z"/>
	</g>
</g>
</svg>