<?xml version="1.0" encoding="UTF-8"?>
<!-- Generator: Adobe Illustrator 16.0.4, SVG Export Plug-In . SVG Version: 6.00 Build 0)  -->
<!DOCTYPE svg PUBLIC "-//W3C//DTD SVG 1.1//EN" "http://www.w3.org/Graphics/SVG/1.1/DTD/svg11.dtd">
<svg version="1.1" id="Layer_1" xmlns="http://www.w3.org/2000/svg" xmlns:xlink="http://www.w3.org/1999/xlink" x="0px" y="0px" width="240px" height="45px" viewBox="0 0 240 45" enable-background="new 0 0 240 45" xml:space="preserve">
<g>
	<g>
		<g>
			<g>
				<path fill="#FFFFFF" d="M84.16,25.461c-0.768,0.734-2.095,1.391-3.521,1.391c-2.535,0-4.416-1.641-4.416-4.404      c0-2.79,1.881-4.429,4.416-4.429c2.21,0,3.457,1.236,3.509,3.243l-1.627,0.341c-0.026-1.197-0.632-1.944-1.906-1.944      c-1.517,0-2.562,1.011-2.562,2.79c0,1.756,1.045,2.764,2.626,2.764c1.059,0,2.018-0.492,2.648-1.072L84.16,25.461z"/>
				<path fill="#FFFFFF" d="M90.265,18.018c2.538,0,4.431,1.893,4.431,4.429c0,2.51-1.893,4.404-4.431,4.404      c-2.509,0-4.402-1.895-4.402-4.404C85.862,19.911,87.755,18.018,90.265,18.018z M90.279,25.199c1.577,0,2.677-1.199,2.677-2.752      c0-1.576-1.1-2.751-2.677-2.751c-1.552,0-2.675,1.175-2.675,2.751C87.604,24,88.727,25.199,90.279,25.199z"/>
				<path fill="#FFFFFF" d="M96.917,26.727v-8.583h1.766v7.042h4.454v1.541H96.917z"/>
				<path fill="#FFFFFF" d="M106.569,22.99c0,1.361,0.694,2.232,2.12,2.232c1.452,0,2.157-0.92,2.157-2.246v-4.833h1.766v4.958      c0,2.021-1.362,3.762-3.923,3.762c-2.538,0-3.886-1.576-3.886-3.762v-4.958h1.766V22.99z"/>
				<path fill="#FFFFFF" d="M123.024,20.934l-2.878,3.457h-0.313l-2.866-3.457v5.793H115.2v-8.583h1.591l3.205,3.824l3.205-3.824      h1.592v8.583h-1.768V20.934z"/>
				<path fill="#FFFFFF" d="M127.605,18.144h3.582c1.868,0,2.978,0.721,2.978,2.284c0,0.898-0.505,1.514-1.323,1.83      c1.25,0.24,2.005,0.923,2.005,2.171c0,1.414-1.071,2.299-3.079,2.299h-4.162V18.144z M130.896,21.589      c0.896,0,1.439-0.253,1.439-0.959c0-0.744-0.507-0.973-1.401-0.973h-1.564v1.932H130.896z M131.516,25.211      c0.972,0,1.438-0.312,1.438-1.008c0-0.784-0.567-1.062-1.59-1.062h-1.994v2.07H131.516z"/>
				<path fill="#FFFFFF" d="M138.733,22.99c0,1.361,0.694,2.232,2.12,2.232c1.451,0,2.158-0.92,2.158-2.246v-4.833h1.766v4.958      c0,2.021-1.362,3.762-3.924,3.762c-2.539,0-3.887-1.576-3.887-3.762v-4.958h1.767V22.99z"/>
				<path fill="#FFFFFF" d="M148.941,22.926c-1.302-0.34-1.969-1.135-1.969-2.295c0-1.427,1.073-2.601,3.433-2.601      c1.235,0,2.422,0.328,3.079,0.682l-0.504,1.653c-0.633-0.404-1.703-0.719-2.639-0.719c-1.086,0-1.541,0.34-1.541,0.833      c0,0.468,0.316,0.656,0.934,0.833l1.592,0.455c1.551,0.44,2.308,1.147,2.308,2.373c0,1.615-1.424,2.713-3.496,2.713      c-1.247,0-2.472-0.428-3.026-0.744l0.418-1.68c0.617,0.404,1.613,0.809,2.647,0.809c1.035,0,1.615-0.393,1.615-0.959      c0-0.469-0.453-0.693-1.222-0.91L148.941,22.926z"/>
				<path fill="#FFFFFF" d="M160.462,18.263h3.583c1.868,0,2.979,0.717,2.979,2.284c0,0.897-0.506,1.514-1.327,1.829      c1.251,0.241,2.008,0.921,2.008,2.172c0,1.414-1.072,2.297-3.08,2.297h-4.163V18.263z M163.755,21.706      c0.896,0,1.44-0.25,1.44-0.958c0-0.745-0.506-0.972-1.401-0.972h-1.564v1.929H163.755z M164.375,25.33      c0.97,0,1.438-0.314,1.438-1.012c0-0.781-0.568-1.061-1.59-1.061h-1.993v2.072H164.375z"/>
				<path fill="#FFFFFF" d="M171.529,23.109c0,1.361,0.692,2.232,2.119,2.232c1.451,0,2.156-0.922,2.156-2.246v-4.833h1.769v4.958      c0,2.02-1.364,3.762-3.925,3.762c-2.538,0-3.887-1.578-3.887-3.762v-4.958h1.768V23.109z"/>
				<path fill="#FFFFFF" d="M180.285,18.263h1.765v8.581h-1.765V18.263z"/>
				<path fill="#FFFFFF" d="M184.804,26.844v-8.581h1.766v7.042h4.454v1.539H184.804z"/>
				<path fill="#FFFFFF" d="M193.016,18.263h3.699c2.535,0.012,4.428,1.514,4.428,4.303c0,2.765-1.893,4.278-4.428,4.278h-3.699      V18.263z M194.782,19.801v5.503h1.855c1.577,0,2.676-0.973,2.676-2.739c0-1.792-1.099-2.764-2.676-2.764H194.782z"/>
				<path fill="#FFFFFF" d="M203.449,18.263h1.77v8.581h-1.77V18.263z"/>
				<path fill="#FFFFFF" d="M209.8,21.078v5.766h-1.77v-8.581h1.542l4.818,5.78v-5.78h1.767v8.581h-1.538L209.8,21.078z"/>
				<path fill="#FFFFFF" d="M226.492,21.77v4.027c-0.793,0.629-2.347,1.172-3.659,1.172c-2.536,0-4.569-1.639-4.569-4.403      c0-2.789,2.033-4.429,4.569-4.429c1.388,0,2.476,0.467,3.33,1.161l-0.819,1.35c-0.669-0.556-1.464-0.871-2.473-0.871      c-1.564,0-2.776,1.01-2.776,2.789c0,1.753,1.212,2.765,2.853,2.765c0.681,0,1.312-0.176,1.777-0.455v-1.579h-2.258V21.77      H226.492z"/>
			</g>
		</g>
	</g>
	<g>
		<g>
			<g>
				<g>
					<g>
						<path fill="#FFFFFF" d="M31.666,25.902c-1.788,0-3.6-0.338-5.435-0.73c-0.108-0.025-0.177-0.133-0.152-0.238        c0.022-0.107,0.129-0.178,0.237-0.154c3.497,0.754,6.907,1.291,10.175-0.373c0.098-0.049,0.219-0.01,0.27,0.088        c0.05,0.098,0.01,0.221-0.088,0.27C35.026,25.602,33.356,25.902,31.666,25.902z"/>
						<path fill="#FFFFFF" d="M31.666,26.389c-1.737,0-3.47-0.297-5.537-0.742c-0.179-0.037-0.333-0.145-0.432-0.301        c-0.1-0.154-0.133-0.338-0.093-0.518c0.065-0.311,0.347-0.539,0.668-0.539l0.15,0.018c1.976,0.424,3.625,0.709,5.239,0.709        c1.726,0,3.233-0.34,4.608-1.041l0.104-0.055l0.207-0.021c0.259,0,0.493,0.145,0.612,0.375        c0.083,0.162,0.098,0.35,0.041,0.523c-0.056,0.176-0.179,0.316-0.342,0.4C35.317,25.998,33.608,26.389,31.666,26.389z"/>
					</g>
					<g>
						<path fill="#FFFFFF" d="M14.244,25.373c-0.072,0-0.142-0.039-0.178-0.107c-0.051-0.098-0.014-0.219,0.084-0.27        c3.839-2.028,7.782-1.168,11.594-0.342l0.571,0.125c0.109,0.023,0.178,0.129,0.154,0.238c-0.022,0.107-0.13,0.178-0.239,0.154        l-0.572-0.125c-3.741-0.814-7.61-1.654-11.321,0.303C14.307,25.365,14.274,25.373,14.244,25.373z"/>
						<path fill="#FFFFFF" d="M14.244,25.859c-0.255,0-0.487-0.141-0.607-0.367c-0.086-0.164-0.104-0.35-0.048-0.525        c0.055-0.176,0.173-0.318,0.338-0.404c1.662-0.875,3.47-1.303,5.526-1.303c2.163,0,4.314,0.467,6.394,0.92l0.573,0.125        c0.177,0.037,0.331,0.143,0.43,0.297c0.102,0.156,0.135,0.34,0.095,0.52c-0.065,0.311-0.348,0.539-0.669,0.539l-0.15-0.016        l-0.57-0.123c-2.002-0.436-4.073-0.887-6.096-0.887c-1.834,0-3.436,0.375-4.896,1.145l-0.106,0.057L14.244,25.859z"/>
					</g>
				</g>
				<g>
					<g>
						<path fill="#FFFFFF" d="M27.468,21.896c-0.013,0-0.027,0-0.04-0.003c-0.43-0.084-0.867-0.173-1.31-0.265l-0.437-0.091        c-3.507-0.727-7.482-1.551-11.41,0.082c-0.103,0.042-0.219-0.006-0.262-0.108c-0.042-0.103,0.006-0.219,0.107-0.262        c4.043-1.681,8.082-0.843,11.646-0.104l0.437,0.09c0.441,0.092,0.876,0.182,1.304,0.265c0.109,0.021,0.181,0.126,0.16,0.235        C27.644,21.831,27.561,21.896,27.468,21.896z"/>
						<path fill="#FFFFFF" d="M27.468,22.382l-0.125-0.01c-0.405-0.079-0.808-0.163-1.216-0.246l-0.543-0.112        c-2.028-0.421-4.124-0.856-6.293-0.856c-1.778,0-3.36,0.298-4.831,0.909l-0.091,0.038l-0.174,0.015        c-0.277,0-0.525-0.165-0.632-0.421c-0.071-0.169-0.072-0.357-0.002-0.525c0.069-0.171,0.201-0.302,0.37-0.373        c1.646-0.684,3.398-1.016,5.357-1.016c2.303,0,4.571,0.47,6.571,0.884l0.44,0.09c0.44,0.092,0.873,0.182,1.299,0.264        c0.179,0.034,0.335,0.136,0.437,0.29c0.104,0.152,0.142,0.335,0.106,0.515C28.074,22.152,27.791,22.382,27.468,22.382z"/>
					</g>
					<g>
						<path fill="#FFFFFF" d="M31.708,22.393c-1.332,0-2.747-0.199-4.28-0.501c-0.108-0.021-0.179-0.125-0.158-0.233        c0.021-0.109,0.125-0.18,0.236-0.159c4.803,0.947,7.044,0.4,8.929-0.712c0.095-0.056,0.218-0.024,0.274,0.071        c0.056,0.095,0.023,0.217-0.07,0.274C35.091,22.046,33.473,22.393,31.708,22.393z"/>
						<path fill="#FFFFFF" d="M31.708,22.879c-1.222,0-2.613-0.162-4.374-0.509c-0.18-0.035-0.335-0.138-0.438-0.292        c-0.102-0.153-0.138-0.336-0.102-0.516c0.06-0.317,0.345-0.552,0.672-0.552l0.134,0.013c1.625,0.32,2.986,0.476,4.165,0.476        c2.21,0,3.476-0.572,4.422-1.131c0.315-0.185,0.758-0.069,0.941,0.245c0.091,0.157,0.117,0.341,0.072,0.52        c-0.047,0.177-0.159,0.325-0.316,0.418C35.35,22.457,33.705,22.879,31.708,22.879z"/>
					</g>
				</g>
			</g>
		</g>
	</g>
	<g>
		<path fill="#FFFFFF" d="M47.162,26.504v-6.636h-2.388v-1.53h6.514v1.53h-2.376v6.636H47.162z"/>
		<path fill="#FFFFFF" d="M58.71,26.504v-3.44h-3.856v3.44h-1.739v-8.166h1.739v3.208h3.856v-3.208h1.751v8.166H58.71z"/>
		<path fill="#FFFFFF" d="M63.49,26.504v-8.166h5.779v1.53h-4.04v1.714h3.954v1.531h-3.954v1.861h4.04v1.529H63.49z"/>
	</g>
</g>
</svg>