<?xml version="1.0" encoding="UTF-8"?>
<!-- Generator: Adobe Illustrator 16.0.4, SVG Export Plug-In . SVG Version: 6.00 Build 0)  -->
<!DOCTYPE svg PUBLIC "-//W3C//DTD SVG 1.1//EN" "http://www.w3.org/Graphics/SVG/1.1/DTD/svg11.dtd">
<svg version="1.1" id="Layer_1" xmlns="http://www.w3.org/2000/svg" xmlns:xlink="http://www.w3.org/1999/xlink" x="0px" y="0px" width="300px" height="13px" viewBox="0 0 300 13" enable-background="new 0 0 300 13" xml:space="preserve">
<g>
	<g>
		<g>
			<g>
				<path fill="#FFFFFF" d="M99.921,10.934c-1.073,1.025-2.927,1.94-4.92,1.94c-3.542,0-6.169-2.291-6.169-6.152      c0-3.898,2.628-6.189,6.169-6.189c3.088,0,4.831,1.728,4.903,4.531L97.63,5.54c-0.036-1.673-0.883-2.716-2.664-2.716      c-2.119,0-3.58,1.413-3.58,3.898c0,2.453,1.461,3.861,3.669,3.861c1.479,0,2.82-0.687,3.701-1.499L99.921,10.934z"/>
				<path fill="#FFFFFF" d="M108.452,0.533c3.546,0,6.191,2.645,6.191,6.189c0,3.508-2.645,6.152-6.191,6.152      c-3.506,0-6.152-2.645-6.152-6.152C102.3,3.177,104.945,0.533,108.452,0.533z M108.472,10.567c2.203,0,3.74-1.676,3.74-3.845      c0-2.202-1.537-3.845-3.74-3.845c-2.169,0-3.738,1.643-3.738,3.845C104.734,8.891,106.303,10.567,108.472,10.567z"/>
				<path fill="#FFFFFF" d="M117.747,12.7V0.708h2.467v9.84h6.223V12.7H117.747z"/>
				<path fill="#FFFFFF" d="M131.233,7.48c0,1.903,0.971,3.119,2.963,3.119c2.028,0,3.014-1.286,3.014-3.137V0.708h2.467v6.929      c0,2.822-1.903,5.256-5.481,5.256c-3.546,0-5.431-2.204-5.431-5.256V0.708h2.468V7.48z"/>
				<path fill="#FFFFFF" d="M154.227,4.606l-4.022,4.83h-0.438l-4.004-4.83V12.7h-2.469V0.708h2.223l4.478,5.343l4.478-5.343h2.225      V12.7h-2.47V4.606z"/>
				<path fill="#FFFFFF" d="M160.627,0.708h5.006c2.61,0,4.159,1.008,4.159,3.191c0,1.255-0.705,2.116-1.849,2.557      c1.747,0.336,2.802,1.29,2.802,3.033c0,1.976-1.497,3.211-4.302,3.211h-5.816V0.708z M165.226,5.523      c1.251,0,2.011-0.354,2.011-1.34c0-1.04-0.707-1.359-1.957-1.359h-2.187v2.699H165.226z M166.091,10.583      c1.357,0,2.01-0.438,2.01-1.408c0-1.096-0.793-1.484-2.222-1.484h-2.786v2.892H166.091z"/>
				<path fill="#FFFFFF" d="M176.176,7.48c0,1.903,0.971,3.119,2.962,3.119c2.028,0,3.016-1.286,3.016-3.137V0.708h2.468v6.929      c0,2.822-1.903,5.256-5.483,5.256c-3.547,0-5.431-2.204-5.431-5.256V0.708h2.469V7.48z"/>
				<path fill="#FFFFFF" d="M190.439,7.39c-1.818-0.476-2.751-1.585-2.751-3.208c0-1.993,1.499-3.633,4.797-3.633      c1.726,0,3.384,0.458,4.302,0.953l-0.704,2.311c-0.885-0.564-2.38-1.005-3.687-1.005c-1.518,0-2.153,0.476-2.153,1.164      c0,0.653,0.442,0.916,1.305,1.163l2.224,0.635c2.167,0.615,3.225,1.603,3.225,3.315c0,2.258-1.99,3.79-4.885,3.79      c-1.743,0-3.454-0.598-4.229-1.039l0.584-2.347c0.862,0.564,2.255,1.129,3.699,1.129c1.447,0,2.258-0.547,2.258-1.34      c0-0.653-0.634-0.969-1.708-1.27L190.439,7.39z"/>
				<path fill="#FFFFFF" d="M206.537,0.875h5.006c2.611,0,4.163,1.002,4.163,3.191c0,1.253-0.707,2.116-1.854,2.555      c1.747,0.337,2.805,1.287,2.805,3.036c0,1.974-1.498,3.209-4.303,3.209h-5.817V0.875z M211.139,5.686      c1.252,0,2.012-0.35,2.012-1.338c0-1.042-0.706-1.358-1.958-1.358h-2.186v2.696H211.139z M212.004,10.75      c1.355,0,2.009-0.441,2.009-1.414c0-1.092-0.794-1.481-2.222-1.481h-2.784v2.895H212.004z"/>
				<path fill="#FFFFFF" d="M222.001,7.646c0,1.903,0.968,3.12,2.961,3.12c2.027,0,3.014-1.288,3.014-3.138V0.875h2.471v6.929      c0,2.82-1.906,5.255-5.484,5.255c-3.546,0-5.431-2.207-5.431-5.255V0.875h2.47V7.646z"/>
				<path fill="#FFFFFF" d="M234.235,0.875h2.466v11.991h-2.466V0.875z"/>
				<path fill="#FFFFFF" d="M240.55,12.865V0.875h2.466v9.839h6.225v2.151H240.55z"/>
				<path fill="#FFFFFF" d="M252.023,0.875h5.169c3.543,0.017,6.187,2.116,6.187,6.012c0,3.863-2.644,5.979-6.187,5.979h-5.169      V0.875z M254.492,3.024v7.689h2.592c2.204,0,3.739-1.359,3.739-3.827c0-2.505-1.535-3.862-3.739-3.862H254.492z"/>
				<path fill="#FFFFFF" d="M266.603,0.875h2.472v11.991h-2.472V0.875z"/>
				<path fill="#FFFFFF" d="M275.476,4.808v8.057h-2.472V0.875h2.154l6.732,8.076V0.875h2.469v11.991h-2.149L275.476,4.808z"/>
				<path fill="#FFFFFF" d="M298.8,5.775v5.626c-1.108,0.88-3.279,1.637-5.112,1.637c-3.545,0-6.386-2.289-6.386-6.152      c0-3.896,2.841-6.189,6.386-6.189c1.938,0,3.458,0.652,4.652,1.623l-1.145,1.887c-0.936-0.777-2.046-1.217-3.455-1.217      c-2.186,0-3.879,1.411-3.879,3.896c0,2.449,1.693,3.863,3.985,3.863c0.951,0,1.833-0.247,2.483-0.636V7.907h-3.154V5.775H298.8z      "/>
			</g>
		</g>
	</g>
	<g>
		<g>
			<g>
				<g>
					<g>
						<path fill="#FFFFFF" d="M26.572,11.549c-2.498,0-5.03-0.471-7.593-1.021c-0.151-0.033-0.248-0.185-0.213-0.333        c0.031-0.15,0.181-0.249,0.331-0.214c4.887,1.052,9.65,1.804,14.217-0.521c0.138-0.07,0.306-0.014,0.377,0.123        c0.07,0.137,0.014,0.307-0.123,0.375C31.268,11.128,28.934,11.549,26.572,11.549z"/>
						<path fill="#FFFFFF" d="M26.572,12.228c-2.427,0-4.849-0.415-7.737-1.037c-0.25-0.052-0.465-0.202-0.603-0.42        c-0.14-0.214-0.186-0.471-0.13-0.722c0.091-0.434,0.485-0.755,0.933-0.755l0.209,0.024c2.762,0.592,5.065,0.991,7.32,0.991        c2.412,0,4.518-0.474,6.439-1.455L33.15,8.78l0.29-0.03c0.362,0,0.689,0.201,0.855,0.522c0.116,0.229,0.137,0.489,0.057,0.733        c-0.079,0.244-0.25,0.442-0.478,0.559C31.674,11.684,29.286,12.228,26.572,12.228z"/>
					</g>
					<g>
						<path fill="#FFFFFF" d="M2.229,10.808c-0.101,0-0.198-0.054-0.248-0.148c-0.071-0.137-0.02-0.305,0.118-0.378        c5.365-2.832,10.875-1.632,16.2-0.477l0.798,0.176c0.153,0.032,0.249,0.181,0.215,0.333c-0.031,0.15-0.182,0.248-0.333,0.214        l-0.8-0.174C12.951,9.217,7.545,8.043,2.36,10.776C2.317,10.798,2.271,10.808,2.229,10.808z"/>
						<path fill="#FFFFFF" d="M2.229,11.488c-0.356,0-0.68-0.195-0.848-0.511c-0.12-0.23-0.144-0.489-0.067-0.736        c0.077-0.244,0.243-0.443,0.472-0.563c2.322-1.223,4.849-1.82,7.722-1.82c3.021,0,6.027,0.652,8.934,1.285l0.8,0.174        c0.247,0.051,0.463,0.2,0.601,0.415c0.142,0.217,0.188,0.474,0.133,0.726c-0.092,0.435-0.486,0.754-0.936,0.754l-0.209-0.022        l-0.796-0.173c-2.797-0.608-5.691-1.239-8.517-1.239c-2.563,0-4.801,0.524-6.841,1.6l-0.148,0.079L2.229,11.488z"/>
					</g>
				</g>
				<g>
					<g>
						<path fill="#FFFFFF" d="M20.707,5.952c-0.019,0-0.038,0-0.055-0.004c-0.602-0.118-1.212-0.242-1.831-0.37L18.21,5.45        c-4.9-1.016-10.454-2.167-15.943,0.115C2.124,5.624,1.961,5.556,1.901,5.413C1.842,5.27,1.91,5.107,2.051,5.047        C7.7,2.699,13.343,3.869,18.325,4.902l0.61,0.126c0.616,0.128,1.225,0.254,1.822,0.37c0.152,0.03,0.252,0.177,0.223,0.328        C20.952,5.86,20.837,5.952,20.707,5.952z"/>
						<path fill="#FFFFFF" d="M20.707,6.63l-0.175-0.014c-0.566-0.11-1.129-0.228-1.7-0.344l-0.759-0.157        c-2.834-0.588-5.763-1.196-8.793-1.196c-2.485,0-4.695,0.417-6.75,1.271L2.402,6.243L2.159,6.264        c-0.388,0-0.734-0.23-0.884-0.588c-0.1-0.236-0.101-0.499-0.003-0.734C1.37,4.703,1.553,4.52,1.79,4.42        C4.09,3.464,6.539,3,9.276,3c3.217,0,6.387,0.656,9.182,1.236l0.615,0.126c0.615,0.128,1.219,0.254,1.815,0.369        c0.25,0.048,0.468,0.19,0.611,0.404c0.145,0.212,0.197,0.469,0.148,0.72C21.553,6.31,21.158,6.63,20.707,6.63z"/>
					</g>
					<g>
						<path fill="#FFFFFF" d="M26.632,6.646c-1.86,0-3.838-0.278-5.98-0.7C20.5,5.917,20.401,5.771,20.43,5.62        c0.03-0.152,0.175-0.252,0.33-0.222c6.711,1.323,9.843,0.56,12.476-0.996c0.132-0.078,0.305-0.034,0.384,0.1        c0.078,0.132,0.033,0.303-0.099,0.383C31.358,6.161,29.098,6.646,26.632,6.646z"/>
						<path fill="#FFFFFF" d="M26.632,7.325c-1.707,0-3.651-0.226-6.111-0.711c-0.25-0.049-0.468-0.192-0.612-0.407        c-0.143-0.214-0.193-0.47-0.143-0.722c0.084-0.443,0.481-0.771,0.939-0.771l0.188,0.019c2.27,0.447,4.173,0.665,5.82,0.665        c3.088,0,4.857-0.8,6.178-1.58c0.44-0.259,1.059-0.097,1.315,0.342c0.128,0.219,0.164,0.477,0.1,0.726        c-0.065,0.247-0.222,0.453-0.441,0.583C31.719,6.735,29.421,7.325,26.632,7.325z"/>
					</g>
				</g>
			</g>
		</g>
	</g>
	<g>
		<path fill="#FFFFFF" d="M48.225,12.39V3.118h-3.336V0.98h9.101v2.138H50.67v9.271H48.225z"/>
		<path fill="#FFFFFF" d="M64.361,12.39V7.583h-5.388v4.807h-2.43V0.98h2.43v4.482h5.388V0.98h2.447v11.41H64.361z"/>
		<path fill="#FFFFFF" d="M71.04,12.39V0.98h8.075v2.138H73.47v2.396h5.525v2.139H73.47v2.6h5.645v2.137H71.04z"/>
	</g>
</g>
</svg>