<?xml version="1.0" encoding="UTF-8"?>
<!-- Generator: Adobe Illustrator 16.0.4, SVG Export Plug-In . SVG Version: 6.00 Build 0)  -->
<!DOCTYPE svg PUBLIC "-//W3C//DTD SVG 1.1//EN" "http://www.w3.org/Graphics/SVG/1.1/DTD/svg11.dtd">
<svg version="1.1" id="Layer_1" xmlns="http://www.w3.org/2000/svg" xmlns:xlink="http://www.w3.org/1999/xlink" x="0px" y="0px" width="400px" height="261px" viewBox="0 0 400 261" enable-background="new 0 0 400 261" xml:space="preserve">
<g>
	<g>
		<g>
			<path fill="#FFFFFF" d="M43.045,74.767c-3.932,3.739-10.695,7.088-17.978,7.088c-12.95,0-22.549-8.376-22.549-22.487     c0-14.239,9.6-22.617,22.549-22.617c11.275,0,17.655,6.319,17.912,16.561L34.67,55.05c-0.132-6.121-3.225-9.922-9.731-9.922     c-7.735,0-13.083,5.155-13.083,14.239c0,8.956,5.348,14.111,13.404,14.111c5.412,0,10.308-2.513,13.531-5.479L43.045,74.767z"/>
			<path fill="#FFFFFF" d="M74.225,36.75c12.951,0,22.618,9.669,22.618,22.617c0,12.824-9.667,22.487-22.618,22.487     c-12.821,0-22.487-9.663-22.487-22.487C51.738,46.419,61.403,36.75,74.225,36.75z M74.289,73.414     c8.055,0,13.663-6.122,13.663-14.047c0-8.054-5.607-14.047-13.663-14.047c-7.924,0-13.659,5.993-13.659,14.047     C60.63,67.292,66.365,73.414,74.289,73.414z"/>
			<path fill="#FFFFFF" d="M108.177,81.211V37.395h9.021V73.35h22.746v7.861H108.177z"/>
			<path fill="#FFFFFF" d="M157.466,62.139c0,6.958,3.543,11.404,10.823,11.404c7.412,0,11.02-4.703,11.02-11.47V37.395h9.019     v25.324c0,10.308-6.957,19.2-20.039,19.2c-12.953,0-19.845-8.053-19.845-19.2V37.395h9.021V62.139z"/>
			<path fill="#FFFFFF" d="M241.482,51.635L226.791,69.29h-1.609l-14.627-17.655v29.576h-9.021V37.395h8.117l16.366,19.524     l16.366-19.524h8.12v43.816h-9.021V51.635z"/>
			<path fill="#FFFFFF" d="M264.865,37.395h18.299c9.535,0,15.207,3.675,15.207,11.663c0,4.577-2.576,7.732-6.767,9.344     c6.38,1.224,10.247,4.704,10.247,11.082c0,7.217-5.479,11.728-15.724,11.728h-21.263V37.395z M281.684,54.987     c4.573,0,7.346-1.289,7.346-4.898c0-3.801-2.58-4.961-7.153-4.961h-7.988v9.859H281.684z M284.841,73.479     c4.963,0,7.344-1.612,7.344-5.155c0-3.996-2.9-5.411-8.118-5.411h-10.179v10.566H284.841z"/>
			<path fill="#FFFFFF" d="M321.692,62.139c0,6.958,3.543,11.404,10.823,11.404c7.411,0,11.02-4.703,11.02-11.47V37.395h9.019     v25.324c0,10.308-6.957,19.2-20.038,19.2c-12.953,0-19.844-8.053-19.844-19.2V37.395h9.021V62.139z"/>
			<path fill="#FFFFFF" d="M373.813,61.815c-6.637-1.738-10.052-5.8-10.052-11.727c0-7.28,5.477-13.274,17.525-13.274     c6.314,0,12.372,1.676,15.72,3.481l-2.575,8.44c-3.219-2.062-8.696-3.672-13.465-3.672c-5.543,0-7.862,1.737-7.862,4.251     c0,2.386,1.612,3.349,4.769,4.252l8.118,2.319c7.925,2.255,11.792,5.862,11.792,12.113c0,8.248-7.283,13.854-17.848,13.854     c-6.377,0-12.633-2.193-15.465-3.802l2.127-8.569c3.156,2.062,8.247,4.124,13.53,4.124s8.246-1.998,8.246-4.896     c0-2.386-2.318-3.544-6.248-4.641L373.813,61.815z"/>
			<path fill="#FFFFFF" d="M41.304,97.859h18.298c9.536,0,15.207,3.672,15.207,11.661c0,4.575-2.579,7.73-6.767,9.341     c6.382,1.225,10.248,4.707,10.248,11.085c0,7.217-5.477,11.729-15.722,11.729H41.304V97.859z M58.121,115.447     c4.574,0,7.346-1.287,7.346-4.895c0-3.803-2.577-4.963-7.151-4.963h-7.991v9.857H58.121z M61.277,133.942     c4.961,0,7.346-1.61,7.346-5.155c0-3.993-2.9-5.413-8.121-5.413H50.324v10.568H61.277z"/>
			<path fill="#FFFFFF" d="M97.807,122.601c0,6.957,3.544,11.405,10.822,11.405c7.414,0,11.021-4.704,11.021-11.47V97.859h9.02     v25.322c0,10.309-6.955,19.2-20.04,19.2c-12.949,0-19.844-8.056-19.844-19.2V97.859h9.022V122.601z"/>
			<path fill="#FFFFFF" d="M142.518,97.859h9.023v43.815h-9.023V97.859z"/>
			<path fill="#FFFFFF" d="M165.583,141.675V97.859h9.021v35.953h22.745v7.862H165.583z"/>
			<path fill="#FFFFFF" d="M207.526,97.859h18.88c12.95,0.064,22.614,7.73,22.614,21.972c0,14.111-9.664,21.844-22.614,21.844     h-18.88V97.859z M216.545,105.718v28.095h9.473c8.054,0,13.659-4.964,13.659-13.981c0-9.149-5.605-14.113-13.659-14.113H216.545z     "/>
			<path fill="#FFFFFF" d="M260.807,97.859h9.022v43.815h-9.022V97.859z"/>
			<path fill="#FFFFFF" d="M293.217,112.225v29.45h-9.024V97.859h7.862l24.614,29.51v-29.51h9.021v43.815h-7.859L293.217,112.225z"/>
			<path fill="#FFFFFF" d="M378.453,115.772v20.555c-4.058,3.221-11.983,5.992-18.685,5.992c-12.949,0-23.324-8.377-23.324-22.488     c0-14.241,10.375-22.617,23.324-22.617c7.086,0,12.629,2.383,17.013,5.927l-4.19,6.897c-3.416-2.838-7.472-4.448-12.629-4.448     c-7.99,0-14.174,5.155-14.174,14.241c0,8.956,6.184,14.111,14.561,14.111c3.479,0,6.702-0.901,9.087-2.32v-8.054h-11.534v-7.796     H378.453z"/>
		</g>
		<g>
			<path fill="#FFFFFF" d="M186.968,2.366v11.057h-1.815V2.366h-4.026V0.724h9.867v1.642H186.968z"/>
			<path fill="#FFFFFF" d="M205.674,13.423V7.431h-7.258v5.992h-1.814V0.724h1.814v5.063h7.258V0.724h1.812v12.699H205.674z"/>
			<path fill="#FFFFFF" d="M214.173,13.423V0.724h8.033v1.642h-6.216v3.421h4.855v1.644h-4.855v4.348h6.216v1.644H214.173z"/>
		</g>
		<g>
			<g>
				<path fill="#FFFFFF" d="M253.622,201.245c-14.627,0-29.449-2.755-44.458-5.989c-0.887-0.192-1.447-1.062-1.257-1.948      c0.19-0.884,1.062-1.45,1.947-1.255c28.601,6.167,56.485,10.568,83.227-3.048c0.804-0.408,1.79-0.087,2.2,0.717      c0.412,0.81,0.09,1.793-0.713,2.203C281.104,198.781,267.451,201.245,253.622,201.245z"/>
				<path fill="#FFFFFF" d="M111.093,196.905c-0.586,0-1.156-0.315-1.45-0.873c-0.423-0.798-0.118-1.79,0.685-2.213      c31.42-16.573,63.663-9.561,94.85-2.78l4.677,1.014c0.882,0.191,1.448,1.062,1.254,1.947c-0.192,0.885-1.062,1.452-1.944,1.256      l-4.686-1.016c-30.608-6.658-62.261-13.537-92.622,2.478C111.615,196.847,111.352,196.905,111.093,196.905z"/>
			</g>
			<g>
				<path fill="#FFFFFF" d="M219.268,178.799c-0.104,0-0.212-0.011-0.315-0.029c-3.521-0.688-7.092-1.423-10.714-2.173l-3.574-0.738      c-28.696-5.953-61.215-12.699-93.348,0.664c-0.837,0.35-1.796-0.047-2.139-0.883c-0.352-0.834,0.043-1.792,0.88-2.141      c33.069-13.748,66.114-6.896,95.268-0.849l3.581,0.739c3.606,0.748,7.163,1.48,10.672,2.162      c0.889,0.177,1.467,1.038,1.295,1.924C220.721,178.257,220.036,178.799,219.268,178.799z"/>
				<path fill="#FFFFFF" d="M253.962,182.858c-10.894,0-22.476-1.62-35.015-4.091c-0.886-0.175-1.463-1.035-1.288-1.923      s1.032-1.466,1.922-1.29c39.297,7.744,57.625,3.271,73.053-5.831c0.775-0.458,1.781-0.203,2.241,0.579      c0.461,0.778,0.203,1.783-0.579,2.243C281.634,180.015,268.399,182.858,253.962,182.858z"/>
			</g>
		</g>
	</g>
</g>
<g>
	<path fill="#FFFFFF" d="M101.055,258.473h-1.64l4.438-9.111H99.43v-1.393h6.751L101.055,258.473z"/>
	<path fill="#FFFFFF" d="M128.215,258.582h-1.562l-2.408-8.019l-2.422,8.019h-1.563l-3.438-10.613h1.579l2.64,8.565l2.517-8.565   h1.36l2.515,8.565l2.642-8.565h1.579L128.215,258.582z"/>
	<path fill="#FFFFFF" d="M136.183,258.473v-10.504h6.642v1.361h-5.143v2.827h4.016v1.361h-4.016v3.592h5.143v1.362H136.183z"/>
	<path fill="#FFFFFF" d="M150.902,258.659c-2.187,0-3.249-1.03-4-2.642l1.344-0.843c0.344,0.983,0.986,2.093,2.562,2.093   c0.938,0,1.815-0.671,1.815-1.641c0-2.282-5.034-1.781-5.034-4.971c0-1.734,1.361-2.905,3.127-2.905   c1.313,0,2.486,0.578,3.281,1.798l-1.172,0.937c-0.469-0.875-1.25-1.312-2.079-1.312c-1.203,0-1.547,0.795-1.547,1.327   c0,1.861,5.033,1.579,5.033,4.955C154.233,257.348,152.655,258.659,150.902,258.659z"/>
	<path fill="#FFFFFF" d="M162.622,249.33v9.143h-1.502v-9.143h-3.329v-1.361h8.159v1.361H162.622z"/>
	<path fill="#FFFFFF" d="M171.999,249.33v2.827h3.812v1.361h-3.812v4.954h-1.501v-10.504h6.438v1.361H171.999z"/>
	<path fill="#FFFFFF" d="M181.498,258.473v-10.504h6.644v1.361H183v2.827h4.017v1.361H183v3.592h5.142v1.362H181.498z"/>
	<path fill="#FFFFFF" d="M199.313,258.473l-3.281-4.689h-1.378v4.689h-1.5v-10.504h3.002c2.423,0,3.328,1.673,3.328,2.909   c0,1.327-0.812,2.203-1.86,2.625l3.502,4.97H199.313z M195.952,249.33h-1.297v3.093h1.313c1.392,0,1.924-0.749,1.924-1.593   C197.892,249.908,197.172,249.33,195.952,249.33z"/>
	<path fill="#FFFFFF" d="M211.781,258.473l-3.28-4.689h-1.379v4.689h-1.498v-10.504h2.998c2.425,0,3.33,1.673,3.33,2.909   c0,1.327-0.812,2.203-1.859,2.625l3.502,4.97H211.781z M208.42,249.33h-1.298v3.093h1.312c1.393,0,1.925-0.749,1.925-1.593   C210.359,249.908,209.641,249.33,208.42,249.33z"/>
	<path fill="#FFFFFF" d="M221.2,253.519v4.954h-1.5v-4.954l-3.688-5.55h1.78l2.657,4.346l2.657-4.346h1.782L221.2,253.519z"/>
	<path fill="#FFFFFF" d="M241.062,249.158c-2.221,0-3.986,1.748-3.986,4.063c0,2.312,1.766,4.062,3.986,4.062   c1.343,0,2.578-0.469,3.673-1.249v1.624c-1.095,0.657-2.375,1.032-3.673,1.032c-3.062,0-5.581-2.252-5.581-5.47   c0-3.221,2.519-5.471,5.581-5.471c1.328,0,2.53,0.392,3.689,1.062v1.626C243.607,249.689,242.219,249.158,241.062,249.158z"/>
	<path fill="#FFFFFF" d="M249.98,258.473v-10.504h1.501v10.504H249.98z"/>
	<path fill="#FFFFFF" d="M263.172,258.473l-3.284-4.689h-1.373v4.689h-1.502v-10.504h3.002c2.421,0,3.327,1.673,3.327,2.909   c0,1.327-0.812,2.203-1.859,2.625l3.502,4.97H263.172z M259.81,249.33h-1.295v3.093h1.312c1.392,0,1.922-0.749,1.922-1.593   C261.748,249.908,261.029,249.33,259.81,249.33z"/>
	<path fill="#FFFFFF" d="M274.298,249.158c-2.22,0-3.986,1.748-3.986,4.063c0,2.312,1.767,4.062,3.986,4.062   c1.343,0,2.576-0.469,3.673-1.249v1.624c-1.097,0.657-2.376,1.032-3.673,1.032c-3.062,0-5.58-2.252-5.58-5.47   c0-3.221,2.519-5.471,5.58-5.471c1.328,0,2.531,0.392,3.688,1.062v1.626C276.845,249.689,275.454,249.158,274.298,249.158z"/>
	<path fill="#FFFFFF" d="M287.58,258.691c-2.237,0-4.689-1.469-4.689-4.705v-6.018h1.5v6.081c0,2.502,1.907,3.234,3.189,3.234   c1.28,0,3.188-0.732,3.188-3.234v-6.081h1.498v6.018C292.267,257.223,289.813,258.691,287.58,258.691z"/>
	<path fill="#FFFFFF" d="M300.833,258.659c-2.189,0-3.251-1.03-4.002-2.642l1.345-0.843c0.343,0.983,0.983,2.093,2.562,2.093   c0.937,0,1.813-0.671,1.813-1.641c0-2.282-5.034-1.781-5.034-4.971c0-1.734,1.361-2.905,3.126-2.905   c1.314,0,2.486,0.578,3.283,1.798l-1.172,0.937c-0.471-0.875-1.251-1.312-2.08-1.312c-1.203,0-1.546,0.795-1.546,1.327   c0,1.861,5.033,1.579,5.033,4.955C304.162,257.348,302.583,258.659,300.833,258.659z"/>
</g>
</svg>