<?xml version="1.0" encoding="UTF-8"?>
<!-- Generator: Adobe Illustrator 16.0.4, SVG Export Plug-In . SVG Version: 6.00 Build 0)  -->
<!DOCTYPE svg PUBLIC "-//W3C//DTD SVG 1.1//EN" "http://www.w3.org/Graphics/SVG/1.1/DTD/svg11.dtd">
<svg version="1.1" id="Layer_1" xmlns="http://www.w3.org/2000/svg" xmlns:xlink="http://www.w3.org/1999/xlink" x="0px" y="0px" width="125px" height="70px" viewBox="0 0 125 70" enable-background="new 0 0 125 70" xml:space="preserve">
<g>
	<g>
		<g>
			<path fill="#0C101D" d="M14.58,28.674c-1.198,1.144-3.268,2.167-5.491,2.167c-3.954,0-6.887-2.559-6.887-6.868     c0-4.351,2.933-6.908,6.887-6.908c3.446,0,5.391,1.929,5.472,5.057l-2.538,0.532c-0.04-1.868-0.984-3.031-2.972-3.031     c-2.364,0-3.996,1.576-3.996,4.351c0,2.736,1.632,4.31,4.095,4.31c1.651,0,3.148-0.768,4.131-1.673L14.58,28.674z"/>
			<path fill="#0C101D" d="M24.102,17.064c3.958,0,6.909,2.952,6.909,6.908c0,3.914-2.951,6.868-6.909,6.868     c-3.916,0-6.867-2.954-6.867-6.868C17.234,20.017,20.186,17.064,24.102,17.064z M24.124,28.264c2.458,0,4.173-1.87,4.173-4.291     c0-2.458-1.715-4.291-4.173-4.291c-2.421,0-4.173,1.833-4.173,4.291C19.951,26.394,21.703,28.264,24.124,28.264z"/>
			<path fill="#0C101D" d="M34.476,30.644V17.26h2.754v10.982h6.945v2.401H34.476z"/>
			<path fill="#0C101D" d="M49.528,24.819c0,2.124,1.083,3.48,3.307,3.48c2.263,0,3.364-1.435,3.364-3.502V17.26h2.754v7.733     c0,3.15-2.125,5.866-6.118,5.866c-3.958,0-6.062-2.46-6.062-5.866V17.26h2.755V24.819z"/>
			<path fill="#0C101D" d="M75.189,21.611l-4.486,5.391h-0.489l-4.471-5.391v9.032h-2.755V17.26h2.481l4.996,5.964l4.998-5.964     h2.482v13.384h-2.757V21.611z"/>
			<path fill="#0C101D" d="M82.334,17.26h5.588c2.911,0,4.643,1.125,4.643,3.562c0,1.401-0.788,2.362-2.064,2.855     c1.948,0.373,3.128,1.438,3.128,3.384c0,2.206-1.672,3.583-4.801,3.583h-6.493V17.26z M87.468,22.634     c1.396,0,2.245-0.395,2.245-1.495c0-1.16-0.79-1.517-2.187-1.517h-2.439v3.012H87.468z M88.433,28.282     c1.516,0,2.244-0.49,2.244-1.573c0-1.22-0.886-1.655-2.479-1.655h-3.11v3.229H88.433z"/>
			<path fill="#0C101D" d="M99.688,24.819c0,2.124,1.083,3.48,3.306,3.48c2.265,0,3.367-1.435,3.367-3.502V17.26h2.755v7.733     c0,3.15-2.125,5.866-6.122,5.866c-3.956,0-6.06-2.46-6.06-5.866V17.26h2.754V24.819z"/>
			<path fill="#0C101D" d="M115.608,24.72c-2.027-0.531-3.07-1.772-3.07-3.581c0-2.225,1.675-4.056,5.354-4.056     c1.928,0,3.777,0.511,4.803,1.063l-0.787,2.579c-0.985-0.629-2.656-1.122-4.115-1.122c-1.691,0-2.402,0.53-2.402,1.299     c0,0.729,0.495,1.022,1.458,1.298l2.479,0.708c2.42,0.687,3.601,1.791,3.601,3.701c0,2.52-2.222,4.231-5.452,4.231     c-1.945,0-3.855-0.669-4.721-1.161l0.65-2.619c0.964,0.631,2.517,1.261,4.131,1.261s2.52-0.611,2.52-1.497     c0-0.729-0.709-1.081-1.907-1.417L115.608,24.72z"/>
			<path fill="#0C101D" d="M14.048,35.728h5.588c2.914,0,4.646,1.12,4.646,3.562c0,1.4-0.788,2.362-2.067,2.854     c1.949,0.376,3.131,1.436,3.131,3.386c0,2.205-1.674,3.584-4.805,3.584h-6.493V35.728z M19.185,41.1     c1.398,0,2.245-0.392,2.245-1.494c0-1.161-0.788-1.516-2.186-1.516h-2.438v3.01H19.185z M20.15,46.751     c1.514,0,2.242-0.493,2.242-1.577c0-1.221-0.886-1.653-2.479-1.653h-3.107v3.23H20.15z"/>
			<path fill="#0C101D" d="M31.308,43.287c0,2.124,1.081,3.483,3.305,3.483c2.265,0,3.366-1.438,3.366-3.505v-7.538h2.755v7.735     c0,3.147-2.126,5.865-6.121,5.865c-3.956,0-6.061-2.462-6.061-5.865v-7.735h2.756V43.287z"/>
			<path fill="#0C101D" d="M44.963,35.728h2.755v13.385h-2.755V35.728z"/>
			<path fill="#0C101D" d="M52.01,49.112V35.728h2.754v10.984h6.946v2.4H52.01z"/>
			<path fill="#0C101D" d="M64.817,35.728h5.77c3.953,0.02,6.904,2.362,6.904,6.712c0,4.312-2.951,6.673-6.904,6.673h-5.77V35.728z      M67.571,38.129v8.583h2.895c2.46,0,4.171-1.517,4.171-4.272c0-2.795-1.711-4.311-4.171-4.311H67.571z"/>
			<path fill="#0C101D" d="M81.089,35.728h2.76v13.385h-2.76V35.728z"/>
			<path fill="#0C101D" d="M90.991,40.119v8.993h-2.757V35.728h2.403l7.515,9.015v-9.015h2.757v13.385H98.51L90.991,40.119z"/>
			<path fill="#0C101D" d="M117.025,41.199v6.278c-1.237,0.982-3.661,1.829-5.706,1.829c-3.955,0-7.127-2.556-7.127-6.867     c0-4.35,3.172-6.908,7.127-6.908c2.164,0,3.858,0.729,5.194,1.812l-1.28,2.105c-1.043-0.867-2.281-1.358-3.855-1.358     c-2.438,0-4.328,1.575-4.328,4.35c0,2.734,1.89,4.312,4.447,4.312c1.061,0,2.047-0.275,2.772-0.709v-2.464h-3.522v-2.379H117.025     z"/>
		</g>
		<g>
			<path fill="#0C101D" d="M55.392,2.195V7.94h-0.946V2.195h-2.091V1.341h5.126v0.854H55.392z"/>
			<path fill="#0C101D" d="M65.11,7.94V4.825H61.34V7.94h-0.944v-6.6h0.944v2.632h3.771V1.341h0.941v6.6H65.11z"/>
			<path fill="#0C101D" d="M69.53,7.94v-6.6h4.175v0.854h-3.232v1.777h2.522v0.853h-2.522v2.264h3.232V7.94H69.53z"/>
		</g>
		<g>
			<g>
				<path fill="#0C101D" d="M78.899,68.375c-4.469,0-8.998-0.843-13.582-1.83c-0.266-0.058-0.438-0.326-0.383-0.595      c0.059-0.271,0.324-0.441,0.594-0.381c8.74,1.882,17.253,3.225,25.422-0.931c0.244-0.126,0.547-0.029,0.673,0.216      c0.125,0.247,0.026,0.549-0.221,0.672C87.292,67.623,83.12,68.375,78.899,68.375z"/>
				<path fill="#0C101D" d="M35.363,67.048c-0.179,0-0.352-0.097-0.441-0.267c-0.129-0.242-0.035-0.544,0.211-0.674      c9.593-5.061,19.444-2.92,28.97-0.85l1.426,0.312c0.27,0.056,0.441,0.322,0.386,0.594c-0.06,0.268-0.325,0.444-0.597,0.382      l-1.428-0.31c-9.352-2.033-19.02-4.134-28.292,0.756C35.525,67.031,35.444,67.048,35.363,67.048z"/>
			</g>
			<g>
				<path fill="#0C101D" d="M68.404,61.519c-0.033,0-0.064-0.003-0.096-0.01c-1.075-0.21-2.165-0.434-3.272-0.662l-1.093-0.226      c-8.765-1.817-18.696-3.88-28.511,0.202c-0.257,0.105-0.549-0.014-0.653-0.27c-0.105-0.257,0.014-0.545,0.268-0.654      c10.102-4.198,20.194-2.105,29.1-0.258l1.092,0.225c1.105,0.229,2.189,0.45,3.263,0.662c0.27,0.053,0.445,0.314,0.393,0.591      C68.849,61.354,68.642,61.519,68.404,61.519z"/>
				<path fill="#0C101D" d="M79.001,62.756c-3.326,0-6.865-0.492-10.695-1.247c-0.269-0.053-0.443-0.316-0.394-0.587      c0.056-0.271,0.318-0.446,0.589-0.394c12.001,2.367,17.603,0.999,22.311-1.781c0.238-0.14,0.545-0.061,0.688,0.176      c0.141,0.238,0.061,0.546-0.178,0.686C87.453,61.892,83.411,62.756,79.001,62.756z"/>
			</g>
		</g>
	</g>
</g>
</svg>